<svg xmlns="http://www.w3.org/2000/svg" viewBox="0 0 102.31 102.02"><defs><style>.cls-1{fill:#377ca3;}.cls-2{fill:#ff525b;}</style></defs><title>Orienta_Icon_SVG</title><g id="Layer_2" data-name="Layer 2"><g id="Calque_1" data-name="Calque 1"><path class="cls-1" d="M.2,46.13A48.91,48.91,0,0,1,7.06,25,50.75,50.75,0,0,1,31.22,4l2.36-1c.06.8.15,1.46.15,2.12v61c0,2.32,0,2.32,2.27,2.32H62.3c0,.72.11,1.28.11,1.85v29c0,1.38-.49,2-1.73,2-3.2.22-6.42.29-9.61.64a36,36,0,0,1-12.73-1.29,49.78,49.78,0,0,1-22-12,51.12,51.12,0,0,1-15-25.27A39.85,39.85,0,0,1,.21,56.41c-.07-.82-.43-3.07,0-3.92"/><path class="cls-2" d="M90.32,23.35c.6-.87,1.07-1.83,1.59-2.76a40,40,0,0,1,7.15,12.84,49.12,49.12,0,0,1,1.7,29.82c-3.93,15.2-12.93,26.53-27,33.65-1.65.83-3.37,1.53-5.36,2.43V36.74c0-3.09,0-3.09-3.19-3.09H39.8c0-.61-.1-1.12-.1-1.63V3c0-1.55.6-2,2-2.24C59.44-2,74.87,2.59,87.7,15.33c1.61,1.61,2.91,3.52,4.36,5.29"/></g></g></svg>